# xmcd
#
# Track frame offsets:
#	150
#	11922
#	22080
#	32695
#	43267
#	55005
#	65277
#	77545
#	89385
#	101207
#	114685
#	127005
#	137612
#	149562
#	159607
#	171115
#	181227
#	191852
#	203297
#	219325
#	230632
#	240957
#
# Disc length: 3380 seconds
#
# Revision: 1
# Processed by: cddbd v1.5.2PL0 Copyright (c) Steve Scherf et al.
# Submitted via: audiograbber 1.83.01
#
DISCID=360d3216
DTITLE=Various Artist - Stompin' 20: Crazed Rhythm 'n' Blues Pounders!
DYEAR=1900
DGENRE=R&B
TTITLE0=Dean Barlow - Don't Leave Me Baby
TTITLE1=Riff Ruffin - Money For My Honey
TTITLE2=The Cocas - Flip Your Daddy
TTITLE3=Baby Dee - Don't Live Like That No More
TTITLE4=Richard Lewis - Still Drifting
TTITLE5=Ed Townsend - Come On And Walk With Me
TTITLE6=Pearl Reeves and The Concords - You Can't Stay Here
TTITLE7=Chester Guydon - You Gotta Help Me Some
TTITLE8=Freddie Mitchell - Preachin'
TTITLE9=Kitty Kaye and The Cats - Fishtruck Boogie
TTITLE10=Les Harris - Nobody Else But You
TTITLE11=Pig Meat Markham - Let's Have Some Heat
TTITLE12=Jimmy Anthony - Fore Day In The Morning
TTITLE13=Mari Jones - Riba Daba Doo
TTITLE14=Larry Purnell - Hot Nuts
TTITLE15=Floyd Dixon - Don't Leave Me Baby
TTITLE16=Paul Tate - How Can I Love You
TTITLE17=Sonny Brooks - Champ Ale
TTITLE18=Gerald Hunter and The Quintones - Gerald's Boogie
TTITLE19=Stick McGhee - Oh What A Face
TTITLE20=Sticks Evans and Alvin Clark - Go Go Go Go Blow
TTITLE21=Tabby and His Mellow, Mellow Men - Church Members Ball
EXTD=
EXTT0=
EXTT1=
EXTT2=
EXTT3=
EXTT4=
EXTT5=
EXTT6=
EXTT7=
EXTT8=
EXTT9=
EXTT10=
EXTT11=
EXTT12=
EXTT13=
EXTT14=
EXTT15=
EXTT16=
EXTT17=
EXTT18=
EXTT19=
EXTT20=
EXTT21=
PLAYORDER=
